<svg xmlns="http://www.w3.org/2000/svg" width="720" height="246" viewBox="0 0 720 246" role="img" aria-label="Ilustración esquemática: acceso-anden">
<defs><pattern id="cuadricula" width="30" height="30" patternUnits="userSpaceOnUse"><path d="M30 0H0V30" fill="none" stroke="#14263e" stroke-width="1"/></pattern></defs>
<rect width="720" height="246" fill="#091326"/><rect width="720" height="246" fill="url(#cuadricula)"/>
<path d="M16 15h688v216H16z" fill="none" stroke="#426084" stroke-width="2"/>
<path d="M161.0 123 H200.0" fill="none" stroke="#70e5b1" stroke-width="4" stroke-linecap="square" stroke-linejoin="miter"/><path d="M191.0 117 l9 6-9 6" fill="none" stroke="#70e5b1" stroke-width="3" stroke-linecap="square" stroke-linejoin="miter"/><path d="M340.0 123 H380.0" fill="none" stroke="#70e5b1" stroke-width="4" stroke-linecap="square" stroke-linejoin="miter"/><path d="M371.0 117 l9 6-9 6" fill="none" stroke="#70e5b1" stroke-width="3" stroke-linecap="square" stroke-linejoin="miter"/><path d="M520.0 123 H559.0" fill="none" stroke="#70e5b1" stroke-width="4" stroke-linecap="square" stroke-linejoin="miter"/><path d="M550.0 117 l9 6-9 6" fill="none" stroke="#70e5b1" stroke-width="3" stroke-linecap="square" stroke-linejoin="miter"/><rect x="25.0" y="49" width="132" height="146" fill="#132641" stroke="#426084" stroke-width="2"/><circle cx="91" cy="86" r="8" fill="#ffd078"/><path d="M91 96 v25 m0-15 l-19 12 m19-12 l18 10 m-18-3 l-16 24 m16-24 l18 24" fill="none" stroke="#edf5ff" stroke-width="4" stroke-linecap="square" stroke-linejoin="miter"/><rect x="25.0" y="165" width="132" height="30" fill="#091326" stroke="#426084" stroke-width="1"/><text x="91" y="185" fill="#edf5ff" text-anchor="middle" font-family="monospace" font-weight="700" font-size="11">CALLE</text><rect x="204.0" y="49" width="132" height="146" fill="#132641" stroke="#426084" stroke-width="2"/><rect x="242" y="72" width="56" height="78" fill="#132641" stroke="#90b6de" stroke-width="2"/><path d="M270 133 v-45 m-9 9 9-9 9 9" fill="none" stroke="#ffd078" stroke-width="4" stroke-linecap="square" stroke-linejoin="miter"/><rect x="204.0" y="165" width="132" height="30" fill="#091326" stroke="#426084" stroke-width="1"/><text x="270" y="185" fill="#edf5ff" text-anchor="middle" font-family="monospace" font-weight="700" font-size="11">ASCENSOR</text><rect x="384.0" y="49" width="132" height="146" fill="#132641" stroke="#426084" stroke-width="2"/><rect x="419.0" y="83.5" width="62" height="55" fill="#132641" stroke="#90b6de" stroke-width="2"/><rect x="415.0" y="74.5" width="70" height="10" fill="#48b4ff" stroke="none" stroke-width="2"/><rect x="440" y="112" width="20" height="26.5" fill="#091326" stroke="#90b6de" stroke-width="2"/><rect x="426.0" y="102" width="10" height="10" fill="#48b4ff" stroke="none" stroke-width="2"/><rect x="464.0" y="102" width="10" height="10" fill="#48b4ff" stroke="none" stroke-width="2"/><rect x="384.0" y="165" width="132" height="30" fill="#091326" stroke="#426084" stroke-width="1"/><text x="450" y="185" fill="#edf5ff" text-anchor="middle" font-family="monospace" font-weight="700" font-size="11">ANDÉN</text><rect x="563.0" y="49" width="132" height="146" fill="#132641" stroke="#426084" stroke-width="2"/><rect x="587.0" y="83" width="84" height="48" fill="#132641" stroke="#48b4ff" stroke-width="3"/><rect x="595.0" y="93" width="18" height="17" fill="#48b4ff" stroke="none" stroke-width="2"/><rect x="645.0" y="93" width="18" height="17" fill="#48b4ff" stroke="none" stroke-width="2"/><rect x="621" y="94" width="16" height="37" fill="#091326" stroke="#90b6de" stroke-width="2"/><circle cx="604.0" cy="136" r="7" fill="#091326" stroke="#90b6de" stroke-width="3"/><circle cx="654.0" cy="136" r="7" fill="#091326" stroke="#90b6de" stroke-width="3"/><rect x="563.0" y="165" width="132" height="30" fill="#091326" stroke="#426084" stroke-width="1"/><text x="629" y="185" fill="#edf5ff" text-anchor="middle" font-family="monospace" font-weight="700" font-size="11">TREN</text>
<text x="30" y="221" fill="#afc1db" text-anchor="start" font-family="monospace" font-weight="700" font-size="9">ESQUEMA ORIGINAL · NO IMAGEN HISTÓRICA</text>
</svg>