<svg xmlns="http://www.w3.org/2000/svg" width="720" height="246" viewBox="0 0 720 246" role="img" aria-label="Ilustración esquemática: acceso-estacion">
<defs><pattern id="cuadricula" width="30" height="30" patternUnits="userSpaceOnUse"><path d="M30 0H0V30" fill="none" stroke="#14263e" stroke-width="1"/></pattern></defs>
<rect width="720" height="246" fill="#091326"/><rect width="720" height="246" fill="url(#cuadricula)"/>
<path d="M16 15h688v216H16z" fill="none" stroke="#426084" stroke-width="2"/>
<path d="M161.0 123 H200.0" fill="none" stroke="#70e5b1" stroke-width="4" stroke-linecap="square" stroke-linejoin="miter"/><path d="M191.0 117 l9 6-9 6" fill="none" stroke="#70e5b1" stroke-width="3" stroke-linecap="square" stroke-linejoin="miter"/><path d="M340.0 123 H380.0" fill="none" stroke="#70e5b1" stroke-width="4" stroke-linecap="square" stroke-linejoin="miter"/><path d="M371.0 117 l9 6-9 6" fill="none" stroke="#70e5b1" stroke-width="3" stroke-linecap="square" stroke-linejoin="miter"/><path d="M520.0 123 H559.0" fill="none" stroke="#70e5b1" stroke-width="4" stroke-linecap="square" stroke-linejoin="miter"/><path d="M550.0 117 l9 6-9 6" fill="none" stroke="#70e5b1" stroke-width="3" stroke-linecap="square" stroke-linejoin="miter"/><rect x="25.0" y="49" width="132" height="146" fill="#132641" stroke="#426084" stroke-width="2"/><rect x="65.0" y="87.5" width="52" height="47" fill="#132641" stroke="#90b6de" stroke-width="2"/><rect x="61.0" y="78.5" width="60" height="10" fill="#48b4ff" stroke="none" stroke-width="2"/><rect x="81" y="112" width="20" height="22.5" fill="#091326" stroke="#90b6de" stroke-width="2"/><rect x="72.0" y="102" width="10" height="10" fill="#48b4ff" stroke="none" stroke-width="2"/><rect x="100.0" y="102" width="10" height="10" fill="#48b4ff" stroke="none" stroke-width="2"/><rect x="25.0" y="165" width="132" height="30" fill="#091326" stroke="#426084" stroke-width="1"/><text x="91" y="185" fill="#edf5ff" text-anchor="middle" font-family="monospace" font-weight="700" font-size="11">VIVIENDA</text><rect x="204.0" y="49" width="132" height="146" fill="#132641" stroke="#426084" stroke-width="2"/><circle cx="270" cy="86" r="8" fill="#ffd078"/><path d="M270 96 v25 m0-15 l-19 12 m19-12 l18 10 m-18-3 l-16 24 m16-24 l18 24" fill="none" stroke="#edf5ff" stroke-width="4" stroke-linecap="square" stroke-linejoin="miter"/><rect x="204.0" y="165" width="132" height="30" fill="#091326" stroke="#426084" stroke-width="1"/><text x="270" y="185" fill="#edf5ff" text-anchor="middle" font-family="monospace" font-weight="700" font-size="11">VEREDA</text><rect x="384.0" y="49" width="132" height="146" fill="#132641" stroke="#426084" stroke-width="2"/><circle cx="428" cy="128" r="15" fill="none" stroke="#70e5b1" stroke-width="4"/><circle cx="474" cy="128" r="15" fill="none" stroke="#70e5b1" stroke-width="4"/><path d="M428 128 l18-31 28 31 h-46 m18-31 9 0" fill="none" stroke="#90b6de" stroke-width="3" stroke-linecap="square" stroke-linejoin="miter"/><rect x="384.0" y="165" width="132" height="30" fill="#091326" stroke="#426084" stroke-width="1"/><text x="450" y="185" fill="#edf5ff" text-anchor="middle" font-family="monospace" font-weight="700" font-size="11">BICICLETA</text><rect x="563.0" y="49" width="132" height="146" fill="#132641" stroke="#426084" stroke-width="2"/><rect x="598.0" y="83.5" width="62" height="55" fill="#132641" stroke="#90b6de" stroke-width="2"/><rect x="594.0" y="74.5" width="70" height="10" fill="#48b4ff" stroke="none" stroke-width="2"/><rect x="619" y="112" width="20" height="26.5" fill="#091326" stroke="#90b6de" stroke-width="2"/><rect x="605.0" y="102" width="10" height="10" fill="#48b4ff" stroke="none" stroke-width="2"/><rect x="643.0" y="102" width="10" height="10" fill="#48b4ff" stroke="none" stroke-width="2"/><rect x="563.0" y="165" width="132" height="30" fill="#091326" stroke="#426084" stroke-width="1"/><text x="629" y="185" fill="#edf5ff" text-anchor="middle" font-family="monospace" font-weight="700" font-size="11">ESTACIÓN</text>
<text x="30" y="221" fill="#afc1db" text-anchor="start" font-family="monospace" font-weight="700" font-size="9">ESQUEMA ORIGINAL · NO IMAGEN HISTÓRICA</text>
</svg>