<svg xmlns="http://www.w3.org/2000/svg" width="720" height="246" viewBox="0 0 720 246" role="img" aria-label="Ilustración esquemática: hojas-piccadilly-2025">
<defs><pattern id="cuadricula" width="30" height="30" patternUnits="userSpaceOnUse"><path d="M30 0H0V30" fill="none" stroke="#14263e" stroke-width="1"/></pattern></defs>
<rect width="720" height="246" fill="#091326"/><rect width="720" height="246" fill="url(#cuadricula)"/>
<path d="M16 15h688v216H16z" fill="none" stroke="#426084" stroke-width="2"/>
<path d="M216.0 123 H269.0" fill="none" stroke="#70e5b1" stroke-width="4" stroke-linecap="square" stroke-linejoin="miter"/><path d="M260.0 117 l9 6-9 6" fill="none" stroke="#70e5b1" stroke-width="3" stroke-linecap="square" stroke-linejoin="miter"/><path d="M451.0 123 H504.0" fill="none" stroke="#70e5b1" stroke-width="4" stroke-linecap="square" stroke-linejoin="miter"/><path d="M495.0 117 l9 6-9 6" fill="none" stroke="#70e5b1" stroke-width="3" stroke-linecap="square" stroke-linejoin="miter"/><rect x="38.0" y="49" width="174" height="146" fill="#132641" stroke="#426084" stroke-width="2"/><path d="M93 136 Q107 74 156 84 Q143 137 93 136Z M102 131 L145 93" fill="none" stroke="#70e5b1" stroke-width="4" stroke-linecap="square" stroke-linejoin="miter"/><rect x="38.0" y="165" width="174" height="30" fill="#091326" stroke="#426084" stroke-width="1"/><text x="125" y="185" fill="#edf5ff" text-anchor="middle" font-family="monospace" font-weight="700" font-size="11">HOJAS EN VÍA</text><rect x="273.0" y="49" width="174" height="146" fill="#132641" stroke="#426084" stroke-width="2"/><path d="M331 139 l40-55 15 11-40 55 z" fill="none" stroke="#90b6de" stroke-width="4" stroke-linecap="square" stroke-linejoin="miter"/><circle cx="332" cy="141" r="6" fill="#ffd078"/><rect x="273.0" y="165" width="174" height="30" fill="#091326" stroke="#426084" stroke-width="1"/><text x="360" y="185" fill="#edf5ff" text-anchor="middle" font-family="monospace" font-weight="700" font-size="11">RUEDA · TALLER</text><rect x="508.0" y="49" width="174" height="146" fill="#132641" stroke="#426084" stroke-width="2"/><circle cx="595" cy="111" r="34" fill="#132641" stroke="#ffd078" stroke-width="4"/><path d="M595 111 v-22 m0 22 l16 10" fill="none" stroke="#edf5ff" stroke-width="3" stroke-linecap="square" stroke-linejoin="miter"/><rect x="508.0" y="165" width="174" height="30" fill="#091326" stroke="#426084" stroke-width="1"/><text x="595" y="185" fill="#edf5ff" text-anchor="middle" font-family="monospace" font-weight="700" font-size="11">MENOS TRENES</text><text x="360" y="32" fill="#ffd078" text-anchor="middle" font-family="monospace" font-weight="700" font-size="14">INFORME · 2025</text>
<text x="30" y="221" fill="#afc1db" text-anchor="start" font-family="monospace" font-weight="700" font-size="9">ESQUEMA ORIGINAL · NO IMAGEN HISTÓRICA</text>
</svg>