<svg xmlns="http://www.w3.org/2000/svg" viewBox="0 0 720 246" role="img"><rect width="720" height="246" fill="#091326"/><path d="M0 0 L0 246" fill="none" stroke="#18304d" stroke-width="1" stroke-linecap="round" stroke-dasharray=""/><path d="M40 0 L40 246" fill="none" stroke="#18304d" stroke-width="1" stroke-linecap="round" stroke-dasharray=""/><path d="M80 0 L80 246" fill="none" stroke="#18304d" stroke-width="1" stroke-linecap="round" stroke-dasharray=""/><path d="M120 0 L120 246" fill="none" stroke="#18304d" stroke-width="1" stroke-linecap="round" stroke-dasharray=""/><path d="M160 0 L160 246" fill="none" stroke="#18304d" stroke-width="1" stroke-linecap="round" stroke-dasharray=""/><path d="M200 0 L200 246" fill="none" stroke="#18304d" stroke-width="1" stroke-linecap="round" stroke-dasharray=""/><path d="M240 0 L240 246" fill="none" stroke="#18304d" stroke-width="1" stroke-linecap="round" stroke-dasharray=""/><path d="M280 0 L280 246" fill="none" stroke="#18304d" stroke-width="1" stroke-linecap="round" stroke-dasharray=""/><path d="M320 0 L320 246" fill="none" stroke="#18304d" stroke-width="1" stroke-linecap="round" stroke-dasharray=""/><path d="M360 0 L360 246" fill="none" stroke="#18304d" stroke-width="1" stroke-linecap="round" stroke-dasharray=""/><path d="M400 0 L400 246" fill="none" stroke="#18304d" stroke-width="1" stroke-linecap="round" stroke-dasharray=""/><path d="M440 0 L440 246" fill="none" stroke="#18304d" stroke-width="1" stroke-linecap="round" stroke-dasharray=""/><path d="M480 0 L480 246" fill="none" stroke="#18304d" stroke-width="1" stroke-linecap="round" stroke-dasharray=""/><path d="M520 0 L520 246" fill="none" stroke="#18304d" stroke-width="1" stroke-linecap="round" stroke-dasharray=""/><path d="M560 0 L560 246" fill="none" stroke="#18304d" stroke-width="1" stroke-linecap="round" stroke-dasharray=""/><path d="M600 0 L600 246" fill="none" stroke="#18304d" stroke-width="1" stroke-linecap="round" stroke-dasharray=""/><path d="M640 0 L640 246" fill="none" stroke="#18304d" stroke-width="1" stroke-linecap="round" stroke-dasharray=""/><path d="M680 0 L680 246" fill="none" stroke="#18304d" stroke-width="1" stroke-linecap="round" stroke-dasharray=""/><path d="M720 0 L720 246" fill="none" stroke="#18304d" stroke-width="1" stroke-linecap="round" stroke-dasharray=""/><path d="M0 0 L720 0" fill="none" stroke="#18304d" stroke-width="1" stroke-linecap="round" stroke-dasharray=""/><path d="M0 40 L720 40" fill="none" stroke="#18304d" stroke-width="1" stroke-linecap="round" stroke-dasharray=""/><path d="M0 80 L720 80" fill="none" stroke="#18304d" stroke-width="1" stroke-linecap="round" stroke-dasharray=""/><path d="M0 120 L720 120" fill="none" stroke="#18304d" stroke-width="1" stroke-linecap="round" stroke-dasharray=""/><path d="M0 160 L720 160" fill="none" stroke="#18304d" stroke-width="1" stroke-linecap="round" stroke-dasharray=""/><path d="M0 200 L720 200" fill="none" stroke="#18304d" stroke-width="1" stroke-linecap="round" stroke-dasharray=""/><path d="M0 240 L720 240" fill="none" stroke="#18304d" stroke-width="1" stroke-linecap="round" stroke-dasharray=""/><text x="360" y="27" fill="#ffd078" font-family="monospace" font-size="13" font-weight="700" text-anchor="middle">MISMOS SEIS DESTINOS · DOS TRAZADOS</text><rect x="43" y="49" width="304" height="151" rx="3" fill="#132641" stroke="#426084" stroke-width="2"/><rect x="373" y="49" width="304" height="151" rx="3" fill="#132641" stroke="#426084" stroke-width="2"/><text x="195" y="71" fill="#48b4ff" font-family="monospace" font-size="11" font-weight="700" text-anchor="middle">A · LÍNEA SINUOSA</text><text x="525" y="71" fill="#70e5b1" font-family="monospace" font-size="11" font-weight="700" text-anchor="middle">B · DOS LÍNEAS</text><circle cx="92" cy="102" r="6" fill="#091326" stroke="#ffd078" stroke-width="3"/><text x="92" y="91" fill="#edf5ff" font-family="monospace" font-size="10" font-weight="700" text-anchor="middle">1</text><circle cx="182" cy="102" r="6" fill="#091326" stroke="#ffd078" stroke-width="3"/><text x="182" y="91" fill="#edf5ff" font-family="monospace" font-size="10" font-weight="700" text-anchor="middle">2</text><circle cx="282" cy="102" r="6" fill="#091326" stroke="#ffd078" stroke-width="3"/><text x="282" y="91" fill="#edf5ff" font-family="monospace" font-size="10" font-weight="700" text-anchor="middle">3</text><circle cx="92" cy="166" r="6" fill="#091326" stroke="#ffd078" stroke-width="3"/><text x="92" y="155" fill="#edf5ff" font-family="monospace" font-size="10" font-weight="700" text-anchor="middle">4</text><circle cx="182" cy="166" r="6" fill="#091326" stroke="#ffd078" stroke-width="3"/><text x="182" y="155" fill="#edf5ff" font-family="monospace" font-size="10" font-weight="700" text-anchor="middle">5</text><circle cx="282" cy="166" r="6" fill="#091326" stroke="#ffd078" stroke-width="3"/><text x="282" y="155" fill="#edf5ff" font-family="monospace" font-size="10" font-weight="700" text-anchor="middle">6</text><circle cx="422" cy="102" r="6" fill="#091326" stroke="#ffd078" stroke-width="3"/><text x="422" y="91" fill="#edf5ff" font-family="monospace" font-size="10" font-weight="700" text-anchor="middle">1</text><circle cx="512" cy="102" r="6" fill="#091326" stroke="#ffd078" stroke-width="3"/><text x="512" y="91" fill="#edf5ff" font-family="monospace" font-size="10" font-weight="700" text-anchor="middle">2</text><circle cx="612" cy="102" r="6" fill="#091326" stroke="#ffd078" stroke-width="3"/><text x="612" y="91" fill="#edf5ff" font-family="monospace" font-size="10" font-weight="700" text-anchor="middle">3</text><circle cx="422" cy="166" r="6" fill="#091326" stroke="#ffd078" stroke-width="3"/><text x="422" y="155" fill="#edf5ff" font-family="monospace" font-size="10" font-weight="700" text-anchor="middle">4</text><circle cx="512" cy="166" r="6" fill="#091326" stroke="#ffd078" stroke-width="3"/><text x="512" y="155" fill="#edf5ff" font-family="monospace" font-size="10" font-weight="700" text-anchor="middle">5</text><circle cx="612" cy="166" r="6" fill="#091326" stroke="#ffd078" stroke-width="3"/><text x="612" y="155" fill="#edf5ff" font-family="monospace" font-size="10" font-weight="700" text-anchor="middle">6</text><path d="M92 102 H182 L282 166 H182 L92 166 L282 102" fill="none" stroke="#48b4ff" stroke-width="4" stroke-linecap="round" stroke-linejoin="round" stroke-dasharray=""/><path d="M422 102 H612 M422 166 H612 M512 102 V166" fill="none" stroke="#70e5b1" stroke-width="4" stroke-linecap="round" stroke-linejoin="round" stroke-dasharray=""/><circle cx="512" cy="102" r="10" fill="#091326" stroke="#ffd078" stroke-width="3"/><path d="M28 218 L692 218" fill="none" stroke="#426084" stroke-width="3" stroke-linecap="round" stroke-dasharray=""/><text x="32" y="236" fill="#afc1db" font-family="monospace" font-size="9" font-weight="700" text-anchor="start">ESQUEMA ORIGINAL · EJEMPLO DIDÁCTICO</text></svg>