<svg xmlns="http://www.w3.org/2000/svg" viewBox="0 0 720 246" role="img"><rect width="720" height="246" fill="#091326"/><path d="M0 0 L0 246" fill="none" stroke="#18304d" stroke-width="1" stroke-linecap="round" stroke-dasharray=""/><path d="M40 0 L40 246" fill="none" stroke="#18304d" stroke-width="1" stroke-linecap="round" stroke-dasharray=""/><path d="M80 0 L80 246" fill="none" stroke="#18304d" stroke-width="1" stroke-linecap="round" stroke-dasharray=""/><path d="M120 0 L120 246" fill="none" stroke="#18304d" stroke-width="1" stroke-linecap="round" stroke-dasharray=""/><path d="M160 0 L160 246" fill="none" stroke="#18304d" stroke-width="1" stroke-linecap="round" stroke-dasharray=""/><path d="M200 0 L200 246" fill="none" stroke="#18304d" stroke-width="1" stroke-linecap="round" stroke-dasharray=""/><path d="M240 0 L240 246" fill="none" stroke="#18304d" stroke-width="1" stroke-linecap="round" stroke-dasharray=""/><path d="M280 0 L280 246" fill="none" stroke="#18304d" stroke-width="1" stroke-linecap="round" stroke-dasharray=""/><path d="M320 0 L320 246" fill="none" stroke="#18304d" stroke-width="1" stroke-linecap="round" stroke-dasharray=""/><path d="M360 0 L360 246" fill="none" stroke="#18304d" stroke-width="1" stroke-linecap="round" stroke-dasharray=""/><path d="M400 0 L400 246" fill="none" stroke="#18304d" stroke-width="1" stroke-linecap="round" stroke-dasharray=""/><path d="M440 0 L440 246" fill="none" stroke="#18304d" stroke-width="1" stroke-linecap="round" stroke-dasharray=""/><path d="M480 0 L480 246" fill="none" stroke="#18304d" stroke-width="1" stroke-linecap="round" stroke-dasharray=""/><path d="M520 0 L520 246" fill="none" stroke="#18304d" stroke-width="1" stroke-linecap="round" stroke-dasharray=""/><path d="M560 0 L560 246" fill="none" stroke="#18304d" stroke-width="1" stroke-linecap="round" stroke-dasharray=""/><path d="M600 0 L600 246" fill="none" stroke="#18304d" stroke-width="1" stroke-linecap="round" stroke-dasharray=""/><path d="M640 0 L640 246" fill="none" stroke="#18304d" stroke-width="1" stroke-linecap="round" stroke-dasharray=""/><path d="M680 0 L680 246" fill="none" stroke="#18304d" stroke-width="1" stroke-linecap="round" stroke-dasharray=""/><path d="M720 0 L720 246" fill="none" stroke="#18304d" stroke-width="1" stroke-linecap="round" stroke-dasharray=""/><path d="M0 0 L720 0" fill="none" stroke="#18304d" stroke-width="1" stroke-linecap="round" stroke-dasharray=""/><path d="M0 40 L720 40" fill="none" stroke="#18304d" stroke-width="1" stroke-linecap="round" stroke-dasharray=""/><path d="M0 80 L720 80" fill="none" stroke="#18304d" stroke-width="1" stroke-linecap="round" stroke-dasharray=""/><path d="M0 120 L720 120" fill="none" stroke="#18304d" stroke-width="1" stroke-linecap="round" stroke-dasharray=""/><path d="M0 160 L720 160" fill="none" stroke="#18304d" stroke-width="1" stroke-linecap="round" stroke-dasharray=""/><path d="M0 200 L720 200" fill="none" stroke="#18304d" stroke-width="1" stroke-linecap="round" stroke-dasharray=""/><path d="M0 240 L720 240" fill="none" stroke="#18304d" stroke-width="1" stroke-linecap="round" stroke-dasharray=""/><text x="360" y="27" fill="#ffd078" font-family="monospace" font-size="13" font-weight="700" text-anchor="middle">ESTACIÓN Y ESTADIO · ESCENARIOS HIPOTÉTICOS</text><rect x="43" y="49" width="304" height="152" rx="3" fill="#132641" stroke="#426084" stroke-width="2"/><rect x="373" y="49" width="304" height="152" rx="3" fill="#132641" stroke="#426084" stroke-width="2"/><text x="195" y="72" fill="#ffd078" font-family="monospace" font-size="11" font-weight="700" text-anchor="middle">DÍA HABITUAL</text><path d="M156 123 l39-37 39 37 Z" fill="none" stroke="#48b4ff" stroke-width="4" stroke-linecap="round" stroke-linejoin="round" stroke-dasharray=""/><path d="M145 123 H245+off" fill="none" stroke="#48b4ff" stroke-width="4" stroke-linecap="round" stroke-linejoin="round" stroke-dasharray=""/><circle cx="108" cy="139" r="4" fill="#ffd078" stroke="#ffd078" stroke-width="1"/><path d="M108 144 L108 161" fill="none" stroke="#ffd078" stroke-width="3" stroke-linecap="round" stroke-dasharray=""/><circle cx="147" cy="139" r="4" fill="#ffd078" stroke="#ffd078" stroke-width="1"/><path d="M147 144 L147 161" fill="none" stroke="#ffd078" stroke-width="3" stroke-linecap="round" stroke-dasharray=""/><circle cx="186" cy="139" r="4" fill="#ffd078" stroke="#ffd078" stroke-width="1"/><path d="M186 144 L186 161" fill="none" stroke="#ffd078" stroke-width="3" stroke-linecap="round" stroke-dasharray=""/><path d="M78 189 L312 189" fill="none" stroke="#70e5b1" stroke-width="4" stroke-linecap="round" stroke-dasharray=""/><circle cx="195" cy="189" r="7" fill="#091326" stroke="#ffd078" stroke-width="3"/><text x="525" y="72" fill="#ffd078" font-family="monospace" font-size="11" font-weight="700" text-anchor="middle">SALIDA DE EVENTO</text><path d="M486 123 l39-37 39 37 Z" fill="none" stroke="#48b4ff" stroke-width="4" stroke-linecap="round" stroke-linejoin="round" stroke-dasharray=""/><path d="M475 123 H245+off" fill="none" stroke="#48b4ff" stroke-width="4" stroke-linecap="round" stroke-linejoin="round" stroke-dasharray=""/><circle cx="438" cy="139" r="4" fill="#ffd078" stroke="#ffd078" stroke-width="1"/><path d="M438 144 L438 161" fill="none" stroke="#ffd078" stroke-width="3" stroke-linecap="round" stroke-dasharray=""/><circle cx="477" cy="139" r="4" fill="#ffd078" stroke="#ffd078" stroke-width="1"/><path d="M477 144 L477 161" fill="none" stroke="#ffd078" stroke-width="3" stroke-linecap="round" stroke-dasharray=""/><circle cx="516" cy="139" r="4" fill="#ffd078" stroke="#ffd078" stroke-width="1"/><path d="M516 144 L516 161" fill="none" stroke="#ffd078" stroke-width="3" stroke-linecap="round" stroke-dasharray=""/><circle cx="555" cy="139" r="4" fill="#ffd078" stroke="#ffd078" stroke-width="1"/><path d="M555 144 L555 161" fill="none" stroke="#ffd078" stroke-width="3" stroke-linecap="round" stroke-dasharray=""/><circle cx="594" cy="139" r="4" fill="#ffd078" stroke="#ffd078" stroke-width="1"/><path d="M594 144 L594 161" fill="none" stroke="#ffd078" stroke-width="3" stroke-linecap="round" stroke-dasharray=""/><circle cx="438" cy="160" r="4" fill="#ffd078" stroke="#ffd078" stroke-width="1"/><path d="M438 165 L438 182" fill="none" stroke="#ffd078" stroke-width="3" stroke-linecap="round" stroke-dasharray=""/><circle cx="477" cy="160" r="4" fill="#ffd078" stroke="#ffd078" stroke-width="1"/><path d="M477 165 L477 182" fill="none" stroke="#ffd078" stroke-width="3" stroke-linecap="round" stroke-dasharray=""/><circle cx="516" cy="160" r="4" fill="#ffd078" stroke="#ffd078" stroke-width="1"/><path d="M516 165 L516 182" fill="none" stroke="#ffd078" stroke-width="3" stroke-linecap="round" stroke-dasharray=""/><circle cx="555" cy="160" r="4" fill="#ffd078" stroke="#ffd078" stroke-width="1"/><path d="M555 165 L555 182" fill="none" stroke="#ffd078" stroke-width="3" stroke-linecap="round" stroke-dasharray=""/><path d="M408 189 L642 189" fill="none" stroke="#70e5b1" stroke-width="4" stroke-linecap="round" stroke-dasharray=""/><circle cx="525" cy="189" r="7" fill="#091326" stroke="#ffd078" stroke-width="3"/><path d="M28 218 L692 218" fill="none" stroke="#426084" stroke-width="3" stroke-linecap="round" stroke-dasharray=""/><text x="32" y="236" fill="#afc1db" font-family="monospace" font-size="9" font-weight="700" text-anchor="start">ESQUEMA ORIGINAL · EJEMPLO DIDÁCTICO</text></svg>