<svg xmlns="http://www.w3.org/2000/svg" width="720" height="246" viewBox="0 0 720 246" role="img" aria-label="Ilustración esquemática: tres-trazados">
<defs><pattern id="cuadricula" width="30" height="30" patternUnits="userSpaceOnUse"><path d="M30 0H0V30" fill="none" stroke="#14263e" stroke-width="1"/></pattern></defs>
<rect width="720" height="246" fill="#091326"/><rect width="720" height="246" fill="url(#cuadricula)"/>
<path d="M16 15h688v216H16z" fill="none" stroke="#426084" stroke-width="2"/>
<rect x="38.0" y="49" width="174" height="146" fill="#132641" stroke="#426084" stroke-width="2"/><path d="M82 141 v-32 a43 43 0 0 1 86 0 v32" fill="none" stroke="#90b6de" stroke-width="5" stroke-linecap="square" stroke-linejoin="miter"/><rect x="83.0" y="84" width="84" height="48" fill="#132641" stroke="#48b4ff" stroke-width="3"/><rect x="91.0" y="94" width="18" height="17" fill="#48b4ff" stroke="none" stroke-width="2"/><rect x="141.0" y="94" width="18" height="17" fill="#48b4ff" stroke="none" stroke-width="2"/><rect x="117" y="95" width="16" height="37" fill="#091326" stroke="#90b6de" stroke-width="2"/><circle cx="100.0" cy="137" r="7" fill="#091326" stroke="#90b6de" stroke-width="3"/><circle cx="150.0" cy="137" r="7" fill="#091326" stroke="#90b6de" stroke-width="3"/><rect x="38.0" y="165" width="174" height="30" fill="#091326" stroke="#426084" stroke-width="1"/><text x="125" y="185" fill="#edf5ff" text-anchor="middle" font-family="monospace" font-weight="700" font-size="11">TÚNEL</text><rect x="273.0" y="49" width="174" height="146" fill="#132641" stroke="#426084" stroke-width="2"/><rect x="318.0" y="72" width="84" height="48" fill="#132641" stroke="#48b4ff" stroke-width="3"/><rect x="326.0" y="82" width="18" height="17" fill="#48b4ff" stroke="none" stroke-width="2"/><rect x="376.0" y="82" width="18" height="17" fill="#48b4ff" stroke="none" stroke-width="2"/><rect x="352" y="83" width="16" height="37" fill="#091326" stroke="#90b6de" stroke-width="2"/><circle cx="335.0" cy="125" r="7" fill="#091326" stroke="#90b6de" stroke-width="3"/><circle cx="385.0" cy="125" r="7" fill="#091326" stroke="#90b6de" stroke-width="3"/><path d="M312 134 h96 M325 134 v23 M395 134 v23" fill="none" stroke="#90b6de" stroke-width="4" stroke-linecap="square" stroke-linejoin="miter"/><rect x="273.0" y="165" width="174" height="30" fill="#091326" stroke="#426084" stroke-width="1"/><text x="360" y="185" fill="#edf5ff" text-anchor="middle" font-family="monospace" font-weight="700" font-size="11">VIADUCTO</text><rect x="508.0" y="49" width="174" height="146" fill="#132641" stroke="#426084" stroke-width="2"/><rect x="553.0" y="77" width="84" height="48" fill="#132641" stroke="#48b4ff" stroke-width="3"/><rect x="561.0" y="87" width="18" height="17" fill="#48b4ff" stroke="none" stroke-width="2"/><rect x="611.0" y="87" width="18" height="17" fill="#48b4ff" stroke="none" stroke-width="2"/><rect x="587" y="88" width="16" height="37" fill="#091326" stroke="#90b6de" stroke-width="2"/><circle cx="570.0" cy="130" r="7" fill="#091326" stroke="#90b6de" stroke-width="3"/><circle cx="620.0" cy="130" r="7" fill="#091326" stroke="#90b6de" stroke-width="3"/><path d="M547 142 h96" fill="none" stroke="#70e5b1" stroke-width="4" stroke-linecap="square" stroke-linejoin="miter"/><rect x="508.0" y="165" width="174" height="30" fill="#091326" stroke="#426084" stroke-width="1"/><text x="595" y="185" fill="#edf5ff" text-anchor="middle" font-family="monospace" font-weight="700" font-size="11">SUPERFICIE</text>
<text x="30" y="221" fill="#afc1db" text-anchor="start" font-family="monospace" font-weight="700" font-size="9">ESQUEMA ORIGINAL · NO IMAGEN HISTÓRICA</text>
</svg>